<svg xmlns="http://www.w3.org/2000/svg" width="71.629" height="24.535" viewBox="0 0 71.629 24.535"><path d="M24.594,40.394a11.986,11.986,0,0,1-3.965-2.6,12.451,12.451,0,0,1-2.56-3.776A11.954,11.954,0,0,1,17,29.607a12.156,12.156,0,0,1,.82-5.013,12.2,12.2,0,0,1,9.48-7.627Q33.435,16,38.312,20.933l-3.54,3.54L30.23,29.045l-2.051,2.112,4.71,4.709a7.55,7.55,0,0,0,1.9,1.565q1.018.379,2.2-.806a10,10,0,0,0,2.523-4.451,13.364,13.364,0,0,0,.319-5.652,6.542,6.542,0,0,1-.122-1.306.852.852,0,0,1,.243-.547.769.769,0,0,1,.616-.236.991.991,0,0,1,.645.311,4.241,4.241,0,0,1,.7,2.735,14.517,14.517,0,0,1-1.072,5.567,13.608,13.608,0,0,1-3,4.732,11.885,11.885,0,0,1-7.885,3.54q-.361.022-.721.022A12.047,12.047,0,0,1,24.594,40.394Zm-2.78-19.37q-1.338,1.337-.989,2.354a8.728,8.728,0,0,0,1.925,2.35l4.426,4.427,1.914-1.793,1.975-2.1-4.426-4.426q-1.455-1.395-1.767-1.645a1.474,1.474,0,0,0-.735-.31,1.444,1.444,0,0,0-.233-.019A3.2,3.2,0,0,0,21.814,21.024ZM81.1,37.665a7.736,7.736,0,0,1-1.506-.439A6.642,6.642,0,0,1,78.26,36.5a5.187,5.187,0,0,1-1.072-1.007,4.507,4.507,0,0,1-.715-1.29,4.594,4.594,0,0,1-.258-1.57h2.262a2.946,2.946,0,0,0,1.272,2.542,4.031,4.031,0,0,0,1.336.6,6.4,6.4,0,0,0,1.589.193,4.426,4.426,0,0,0,2.731-.727,2.358,2.358,0,0,0,.949-1.98,2.831,2.831,0,0,0-.182-1.055,2.093,2.093,0,0,0-.644-.838,5.133,5.133,0,0,0-1.247-.715,18.085,18.085,0,0,0-1.993-.686,16.945,16.945,0,0,1-2.291-.826,7.544,7.544,0,0,1-1.746-1.066A4.3,4.3,0,0,1,77.142,26.7a3.9,3.9,0,0,1-.387-1.769,4.141,4.141,0,0,1,.416-1.846,4.421,4.421,0,0,1,1.178-1.476,5.6,5.6,0,0,1,1.828-.979,7.583,7.583,0,0,1,2.38-.351,7.1,7.1,0,0,1,2.566.433,5.828,5.828,0,0,1,1.893,1.148,4.824,4.824,0,0,1,1.166,1.652,4.9,4.9,0,0,1,.4,1.934H86.317a3.731,3.731,0,0,0-.229-1.325,2.776,2.776,0,0,0-.7-1.054,3.233,3.233,0,0,0-1.173-.692,5.048,5.048,0,0,0-1.663-.246,5.24,5.24,0,0,0-1.57.211,3.133,3.133,0,0,0-1.1.58,2.3,2.3,0,0,0-.644.873,2.811,2.811,0,0,0-.212,1.1,2.129,2.129,0,0,0,.229.985,2.513,2.513,0,0,0,.709.82,5.382,5.382,0,0,0,1.237.691,15.36,15.36,0,0,0,1.81.609,16.335,16.335,0,0,1,2.508.908,6.857,6.857,0,0,1,1.74,1.131,4.112,4.112,0,0,1,1.02,1.418,4.5,4.5,0,0,1,.334,1.781,4.048,4.048,0,0,1-1.623,3.328,5.7,5.7,0,0,1-1.875.92,8.673,8.673,0,0,1-2.443.322A8.509,8.509,0,0,1,81.1,37.665Zm-16.84-.416a6.1,6.1,0,0,1-2.18-1.629,7.6,7.6,0,0,1-1.417-2.584,10.871,10.871,0,0,1-.5-3.44V28.518a10.932,10.932,0,0,1,.5-3.439,7.686,7.686,0,0,1,1.406-2.6,6.059,6.059,0,0,1,2.168-1.635,6.7,6.7,0,0,1,2.777-.568,6.856,6.856,0,0,1,2.83.568,5.99,5.99,0,0,1,2.168,1.635,7.528,7.528,0,0,1,1.383,2.6,11.325,11.325,0,0,1,.486,3.439V29.6a11.26,11.26,0,0,1-.486,3.44,7.6,7.6,0,0,1-1.377,2.584,5.9,5.9,0,0,1-2.156,1.629,6.892,6.892,0,0,1-2.824.563A6.769,6.769,0,0,1,64.263,37.249Zm.856-14.625a3.97,3.97,0,0,0-1.46,1.207,5.827,5.827,0,0,0-.931,1.968,10.036,10.036,0,0,0-.328,2.7v1.1a9.888,9.888,0,0,0,.334,2.707,5.915,5.915,0,0,0,.943,1.975,3.989,3.989,0,0,0,1.465,1.213,4.34,4.34,0,0,0,1.9.41A4.48,4.48,0,0,0,69,35.492a3.844,3.844,0,0,0,1.447-1.213,5.716,5.716,0,0,0,.9-1.975,10.841,10.841,0,0,0,.3-2.707v-1.1a10.572,10.572,0,0,0-.311-2.7,5.654,5.654,0,0,0-.908-1.968,3.91,3.91,0,0,0-1.459-1.207,4.482,4.482,0,0,0-1.951-.41A4.328,4.328,0,0,0,65.119,22.624Zm-19.5,14.953V20.515h6.293a7.8,7.8,0,0,1,2.567.387,5.255,5.255,0,0,1,1.868,1.084,4.6,4.6,0,0,1,1.148,1.652,5.448,5.448,0,0,1,.393,2.092,5.8,5.8,0,0,1-.393,2.2,4.2,4.2,0,0,1-1.148,1.623,5.124,5.124,0,0,1-1.868,1,8.671,8.671,0,0,1-2.567.347H47.868v6.679Zm2.25-8.519h4.043a5.2,5.2,0,0,0,1.694-.246,3.08,3.08,0,0,0,1.16-.686,2.656,2.656,0,0,0,.661-1.043,3.988,3.988,0,0,0,.211-1.33,3.87,3.87,0,0,0-.211-1.271,2.9,2.9,0,0,0-.661-1.084,3.246,3.246,0,0,0-1.16-.75,4.6,4.6,0,0,0-1.694-.282H47.868Z" transform="translate(-16.984 -16.808)" fill="#3f51b5"/></svg>