<svg xmlns="http://www.w3.org/2000/svg" xmlns:xlink="http://www.w3.org/1999/xlink" width="198" height="198" viewBox="0 0 198 198"><defs><filter id="a" x="14.5" y="15" width="168" height="168" filterUnits="userSpaceOnUse"><feOffset dy="3" input="SourceAlpha"/><feGaussianBlur stdDeviation="3" result="b"/><feFlood flood-opacity="0.251"/><feComposite operator="in" in2="b"/><feComposite in="SourceGraphic"/></filter><filter id="c" x="67.5" y="0" width="63" height="30" filterUnits="userSpaceOnUse"><feOffset dy="3" input="SourceAlpha"/><feGaussianBlur stdDeviation="3" result="d"/><feFlood flood-opacity="0.251"/><feComposite operator="in" in2="d"/><feComposite in="SourceGraphic"/></filter><filter id="e" x="67.5" y="168" width="63" height="30" filterUnits="userSpaceOnUse"><feOffset dy="3" input="SourceAlpha"/><feGaussianBlur stdDeviation="3" result="f"/><feFlood flood-opacity="0.251"/><feComposite operator="in" in2="f"/><feComposite in="SourceGraphic"/></filter><filter id="g" x="168" y="67.5" width="30" height="63.001" filterUnits="userSpaceOnUse"><feOffset dy="3" input="SourceAlpha"/><feGaussianBlur stdDeviation="3" result="h"/><feFlood flood-opacity="0.259"/><feComposite operator="in" in2="h"/><feComposite in="SourceGraphic"/></filter><filter id="i" x="0" y="67.5" width="30" height="63" filterUnits="userSpaceOnUse"><feOffset dy="3" input="SourceAlpha"/><feGaussianBlur stdDeviation="3" result="j"/><feFlood flood-opacity="0.251"/><feComposite operator="in" in2="j"/><feComposite in="SourceGraphic"/></filter></defs><g transform="translate(-5178.5 -5257)"><g transform="translate(565 422)"><g transform="translate(0 -36)"><g transform="translate(0 3)"><g transform="matrix(1, 0, 0, 1, 4613.5, 4868)" filter="url(#a)"><circle cx="75" cy="75" r="75" transform="translate(23.5 21)" fill="#3f51b5"/></g></g></g></g><g transform="translate(523 431)"><g transform="matrix(1, 0, 0, 1, 4655.5, 4826)" filter="url(#c)"><g transform="translate(76.5 6)" fill="#3f51b5"><path d="M 41.5718994140625 11.49970054626465 L 3.428999900817871 11.49970054626465 C 1.813940048217773 11.49970054626465 0.5 10.18616008758545 0.5 8.571599960327148 C 0.5 8.55150032043457 0.5002700090408325 8.53147029876709 0.5006700158119202 8.511460304260254 L 0.5037966966629028 8.356171607971191 C 0.5534504055976868 7.40648889541626 1.090242266654968 6.468281745910645 2.101279973983765 5.565110206604004 C 3.188499927520752 4.593890190124512 4.758220195770264 3.716620206832886 6.766860008239746 2.957690238952637 C 10.96144962310791 1.372820258140564 16.54891967773438 0.5000002980232239 22.5 0.5000002980232239 C 28.45108032226563 0.5000002980232239 34.03855133056641 1.372820258140564 38.23313903808594 2.957690238952637 C 40.24177932739258 3.716620206832886 41.81150054931641 4.593890190124512 42.89871978759766 5.565110206604004 C 43.91228866577148 6.470541000366211 44.44923782348633 7.411294460296631 44.49657440185547 8.363409996032715 L 44.49932861328125 8.511460304260254 C 44.49972915649414 8.53147029876709 44.5 8.55150032043457 44.5 8.571599960327148 C 44.5 10.18616008758545 43.18645858764648 11.49970054626465 41.5718994140625 11.49970054626465 Z" stroke="none"/><path d="M 41.5718994140625 10.99970054626465 C 42.91075897216797 10.99970054626465 44 9.910460472106934 44 8.571599960327148 C 44 8.55487060546875 43.99977111816406 8.538180351257324 43.99943161010742 8.521520614624023 L 43.99666595458984 8.378829956054688 C 43.95261383056641 7.567911148071289 43.47174072265625 6.747451305389404 42.56562042236328 5.938000202178955 C 41.53910064697266 5.020990371704102 39.97983932495117 4.15215015411377 38.05641174316406 3.42542028427124 C 33.91690063476563 1.861360311508179 28.3922004699707 1.000000238418579 22.5 1.000000238418579 C 16.6077995300293 1.000000238418579 11.08310031890869 1.861360311508179 6.94359016418457 3.42542028427124 C 5.02016019821167 4.15215015411377 3.460900068283081 5.020990371704102 2.434380054473877 5.938000202178955 C 1.529422163963318 6.746413230895996 1.048619270324707 7.565845489501953 1.003503680229187 8.375748634338379 L 1.000570058822632 8.521520614624023 C 1.000229954719543 8.538180351257324 1 8.55487060546875 1 8.571599960327148 C 1 9.910460472106934 2.089639902114868 10.99970054626465 3.428999900817871 10.99970054626465 L 41.5718994140625 10.99970054626465 M 41.5718994140625 11.99970054626465 L 3.428999900817871 11.99970054626465 C 1.535400032997131 11.99970054626465 -3.552713678800501e-15 10.46520042419434 -3.552713678800501e-15 8.571599960327148 C -3.552713678800501e-15 8.548140525817871 0.0003000000142492354 8.524750709533691 0.0007699999841861427 8.501399993896484 L -3.552713678800501e-15 8.501399993896484 C -3.552713678800501e-15 3.806100368499756 10.07369995117188 2.731323149873788e-07 22.5 2.731323149873788e-07 C 34.92630004882813 2.731323149873788e-07 45 3.806100368499756 45 8.501399993896484 L 44.99922943115234 8.501399993896484 C 44.99969863891602 8.524750709533691 45 8.548140525817871 45 8.571599960327148 C 45 10.46520042419434 43.46549987792969 11.99970054626465 41.5718994140625 11.99970054626465 Z" stroke="none" fill="#3f51b5"/></g></g></g><g transform="translate(10032 10275) rotate(180)"><g transform="matrix(-1, 0, 0, -1, 4853.5, 5018)" filter="url(#e)"><g transform="translate(121.5 186) rotate(180)" fill="#3f51b5"><path d="M 41.5718994140625 11.49970054626465 L 3.428999900817871 11.49970054626465 C 1.813940048217773 11.49970054626465 0.5 10.18616008758545 0.5 8.571599960327148 C 0.5 8.55150032043457 0.5002700090408325 8.53147029876709 0.5006700158119202 8.511460304260254 L 0.5037966966629028 8.356171607971191 C 0.5534504055976868 7.40648889541626 1.090242266654968 6.468281745910645 2.101279973983765 5.565110206604004 C 3.188499927520752 4.593890190124512 4.758220195770264 3.716620206832886 6.766860008239746 2.957690238952637 C 10.96144962310791 1.372820258140564 16.54891967773438 0.5000002980232239 22.5 0.5000002980232239 C 28.45108032226563 0.5000002980232239 34.03855133056641 1.372820258140564 38.23313903808594 2.957690238952637 C 40.24177932739258 3.716620206832886 41.81150054931641 4.593890190124512 42.89871978759766 5.565110206604004 C 43.91228866577148 6.470541000366211 44.44923782348633 7.411294460296631 44.49657440185547 8.363409996032715 L 44.49932861328125 8.511460304260254 C 44.49972915649414 8.53147029876709 44.5 8.55150032043457 44.5 8.571599960327148 C 44.5 10.18616008758545 43.18645858764648 11.49970054626465 41.5718994140625 11.49970054626465 Z" stroke="none"/><path d="M 41.5718994140625 10.99970054626465 C 42.91075897216797 10.99970054626465 44 9.910460472106934 44 8.571599960327148 C 44 8.55487060546875 43.99977111816406 8.538180351257324 43.99943161010742 8.521520614624023 L 43.99666595458984 8.378829956054688 C 43.95261383056641 7.567911148071289 43.47174072265625 6.747451305389404 42.56562042236328 5.938000202178955 C 41.53910064697266 5.020990371704102 39.97983932495117 4.15215015411377 38.05641174316406 3.42542028427124 C 33.91690063476563 1.861360311508179 28.3922004699707 1.000000238418579 22.5 1.000000238418579 C 16.6077995300293 1.000000238418579 11.08310031890869 1.861360311508179 6.94359016418457 3.42542028427124 C 5.02016019821167 4.15215015411377 3.460900068283081 5.020990371704102 2.434380054473877 5.938000202178955 C 1.529422163963318 6.746413230895996 1.048619270324707 7.565845489501953 1.003503680229187 8.375748634338379 L 1.000570058822632 8.521520614624023 C 1.000229954719543 8.538180351257324 1 8.55487060546875 1 8.571599960327148 C 1 9.910460472106934 2.089639902114868 10.99970054626465 3.428999900817871 10.99970054626465 L 41.5718994140625 10.99970054626465 M 41.5718994140625 11.99970054626465 L 3.428999900817871 11.99970054626465 C 1.535400032997131 11.99970054626465 -3.552713678800501e-15 10.46520042419434 -3.552713678800501e-15 8.571599960327148 C -3.552713678800501e-15 8.548140525817871 0.0003000000142492354 8.524750709533691 0.0007699999841861427 8.501399993896484 L -3.552713678800501e-15 8.501399993896484 C -3.552713678800501e-15 3.806100368499756 10.07369995117188 2.731323149873788e-07 22.5 2.731323149873788e-07 C 34.92630004882813 2.731323149873788e-07 45 3.806100368499756 45 8.501399993896484 L 44.99922943115234 8.501399993896484 C 44.99969863891602 8.524750709533691 45 8.548140525817871 45 8.571599960327148 C 45 10.46520042419434 43.46549987792969 11.99970054626465 41.5718994140625 11.99970054626465 Z" stroke="none" fill="#3f51b5"/></g></g></g><g transform="translate(10199.5 598.5) rotate(90)"><g transform="matrix(0, -1, 1, 0, 4658.5, 5021)" filter="url(#g)"><g transform="translate(189 73.5) rotate(90)" fill="#3f51b5"><path d="M 41.57279968261719 11.50059986114502 L 3.429900407791138 11.50059986114502 C 1.81484043598175 11.50059986114502 0.5009003877639771 10.18706035614014 0.5009003877639771 8.572500228881836 C 0.5009003877639771 8.555510520935059 0.5007804036140442 8.538510322570801 0.5014303922653198 8.521519660949707 L 0.5115011930465698 8.259678840637207 C 0.591613233089447 7.343246459960938 1.12570858001709 6.438303470611572 2.102180480957031 5.566009998321533 C 3.189400434494019 4.594789981842041 4.759120464324951 3.717519998550415 6.767760276794434 2.958590030670166 C 10.96235084533691 1.373720049858093 16.54981994628906 0.5009000897407532 22.50090026855469 0.5009000897407532 C 28.44820022583008 0.5009000897407532 34.0330810546875 1.372780084609985 38.22674942016602 2.955940008163452 C 40.23503112792969 3.71409010887146 41.80521011352539 4.590559959411621 42.89365005493164 5.561009883880615 C 43.95745849609375 6.509500026702881 44.49821853637695 7.496819972991943 44.50090026855469 8.495539665222168 L 44.50091934204102 8.503490447998047 L 44.50120162963867 8.511429786682129 C 44.50189971923828 8.531789779663086 44.50180053710938 8.552140235900879 44.50180053710938 8.572500228881836 C 44.50180053710938 10.18706035614014 43.18785858154297 11.50059986114502 41.57279968261719 11.50059986114502 Z" stroke="none"/><path d="M 41.57279968261719 11.00059986114502 C 42.91215896606445 11.00059986114502 44.00180053710938 9.911359786987305 44.00180053710938 8.572500228881836 C 44.00180053710938 8.557889938354492 44.00199890136719 8.543270111083984 44.00149154663086 8.528659820556641 L 44.00094985961914 8.51278018951416 L 44.00090026855469 8.496890068054199 C 43.99861907958984 7.64631986618042 43.51412963867188 6.784110069274902 42.5609016418457 5.934219837188721 C 41.53311920166016 5.017859935760498 39.97333145141602 4.149740219116211 38.0501594543457 3.423720121383667 C 33.91152954101563 1.861340045928955 28.38936996459961 1.000900030136108 22.50090026855469 1.000900030136108 C 16.60869979858398 1.000900030136108 11.08400058746338 1.862260103225708 6.944490432739258 3.42632007598877 C 5.021060466766357 4.153049945831299 3.461800336837769 5.021890163421631 2.435280323028564 5.938899993896484 C 1.561343789100647 6.719601631164551 1.082974195480347 7.510661602020264 1.010572075843811 8.293410301208496 L 1.001070380210876 8.540450096130371 C 1.000730395317078 8.551130294799805 1.000900387763977 8.561820030212402 1.000900387763977 8.572500228881836 C 1.000900387763977 9.911359786987305 2.090540409088135 11.00059986114502 3.429900407791138 11.00059986114502 L 41.57279968261719 11.00059986114502 M 41.57279968261719 12.00059986114502 L 3.429900407791138 12.00059986114502 C 1.536300420761108 12.00059986114502 0.0009004028397612274 10.46609973907471 0.0009004028397612274 8.572500228881836 C 0.0009004028397612274 8.549099922180176 0.0009004028397612274 8.525699615478516 0.001800402882508934 8.502300262451172 L 0.0009004028397612274 8.502300262451172 C 0.0009004028397612274 3.807000160217285 10.07460021972656 0.0009000648278743029 22.50090026855469 0.0009000648278743029 C 34.92000198364258 0.0009000648278743029 44.98830032348633 3.802500009536743 45.00090026855469 8.494199752807617 C 45.00180053710938 8.520299911499023 45.00180053710938 8.54640007019043 45.00180053710938 8.572500228881836 C 45.00180053710938 10.46609973907471 43.46640014648438 12.00059986114502 41.57279968261719 12.00059986114502 Z" stroke="none" fill="#3f51b5"/></g></g></g><g transform="translate(355.5 10107.5) rotate(-90)"><g transform="matrix(0, 1, -1, 0, 4850.5, 4823)" filter="url(#i)"><g transform="translate(9 118.5) rotate(-90)" fill="#3f51b5"><path d="M 41.5718994140625 11.49970054626465 L 3.428999900817871 11.49970054626465 C 1.813940048217773 11.49970054626465 0.5 10.18616008758545 0.5 8.571599960327148 C 0.5 8.55150032043457 0.5002700090408325 8.53147029876709 0.5006700158119202 8.511460304260254 L 0.5037966966629028 8.356171607971191 C 0.5534504055976868 7.40648889541626 1.090242266654968 6.468281745910645 2.101279973983765 5.565110206604004 C 3.188499927520752 4.593890190124512 4.758220195770264 3.716620206832886 6.766860008239746 2.957690238952637 C 10.96144962310791 1.372820258140564 16.54891967773438 0.5000002980232239 22.5 0.5000002980232239 C 28.45108032226563 0.5000002980232239 34.03855133056641 1.372820258140564 38.23313903808594 2.957690238952637 C 40.24177932739258 3.716620206832886 41.81150054931641 4.593890190124512 42.89871978759766 5.565110206604004 C 43.91228866577148 6.470541000366211 44.44923782348633 7.411294460296631 44.49657440185547 8.363409996032715 L 44.49932861328125 8.511460304260254 C 44.49972915649414 8.53147029876709 44.5 8.55150032043457 44.5 8.571599960327148 C 44.5 10.18616008758545 43.18645858764648 11.49970054626465 41.5718994140625 11.49970054626465 Z" stroke="none"/><path d="M 41.5718994140625 10.99970054626465 C 42.91075897216797 10.99970054626465 44 9.910460472106934 44 8.571599960327148 C 44 8.55487060546875 43.99977111816406 8.538180351257324 43.99943161010742 8.521520614624023 L 43.99666595458984 8.378829956054688 C 43.95261383056641 7.567911148071289 43.47174072265625 6.747451305389404 42.56562042236328 5.938000202178955 C 41.53910064697266 5.020990371704102 39.97983932495117 4.15215015411377 38.05641174316406 3.42542028427124 C 33.91690063476563 1.861360311508179 28.3922004699707 1.000000238418579 22.5 1.000000238418579 C 16.6077995300293 1.000000238418579 11.08310031890869 1.861360311508179 6.94359016418457 3.42542028427124 C 5.02016019821167 4.15215015411377 3.460900068283081 5.020990371704102 2.434380054473877 5.938000202178955 C 1.529422163963318 6.746413230895996 1.048619270324707 7.565845489501953 1.003503680229187 8.375748634338379 L 1.000570058822632 8.521520614624023 C 1.000229954719543 8.538180351257324 1 8.55487060546875 1 8.571599960327148 C 1 9.910460472106934 2.089639902114868 10.99970054626465 3.428999900817871 10.99970054626465 L 41.5718994140625 10.99970054626465 M 41.5718994140625 11.99970054626465 L 3.428999900817871 11.99970054626465 C 1.535400032997131 11.99970054626465 -3.552713678800501e-15 10.46520042419434 -3.552713678800501e-15 8.571599960327148 C -3.552713678800501e-15 8.548140525817871 0.0003000000142492354 8.524750709533691 0.0007699999841861427 8.501399993896484 L -3.552713678800501e-15 8.501399993896484 C -3.552713678800501e-15 3.806100368499756 10.07369995117188 2.731323149873788e-07 22.5 2.731323149873788e-07 C 34.92630004882813 2.731323149873788e-07 45 3.806100368499756 45 8.501399993896484 L 44.99922943115234 8.501399993896484 C 44.99969863891602 8.524750709533691 45 8.548140525817871 45 8.571599960327148 C 45 10.46520042419434 43.46549987792969 11.99970054626465 41.5718994140625 11.99970054626465 Z" stroke="none" fill="#3f51b5"/></g></g></g></g></svg>