<svg xmlns="http://www.w3.org/2000/svg" xmlns:xlink="http://www.w3.org/1999/xlink" width="298" height="152" viewBox="0 0 298 152"><defs><filter id="a" x="15" y="15" width="268" height="122.115" filterUnits="userSpaceOnUse"><feOffset dy="3" input="SourceAlpha"/><feGaussianBlur stdDeviation="3" result="b"/><feFlood flood-opacity="0.161"/><feComposite operator="in" in2="b"/><feComposite in="SourceGraphic"/></filter><filter id="c" x="197" y="0" width="63" height="27.143" filterUnits="userSpaceOnUse"><feOffset dy="3" input="SourceAlpha"/><feGaussianBlur stdDeviation="3" result="d"/><feFlood flood-opacity="0.259"/><feComposite operator="in" in2="d"/><feComposite in="SourceGraphic"/></filter><filter id="e" x="197" y="6.286" width="63" height="23.714" filterUnits="userSpaceOnUse"><feOffset dy="3" input="SourceAlpha"/><feGaussianBlur stdDeviation="3" result="f"/><feFlood flood-opacity="0.259"/><feComposite operator="in" in2="f"/><feComposite in="SourceGraphic"/></filter><filter id="g" x="117" y="0" width="63" height="27.143" filterUnits="userSpaceOnUse"><feOffset dy="3" input="SourceAlpha"/><feGaussianBlur stdDeviation="3" result="h"/><feFlood flood-opacity="0.259"/><feComposite operator="in" in2="h"/><feComposite in="SourceGraphic"/></filter><filter id="i" x="117" y="6.286" width="63" height="23.714" filterUnits="userSpaceOnUse"><feOffset dy="3" input="SourceAlpha"/><feGaussianBlur stdDeviation="3" result="j"/><feFlood flood-opacity="0.259"/><feComposite operator="in" in2="j"/><feComposite in="SourceGraphic"/></filter><filter id="k" x="37" y="0" width="63" height="27.143" filterUnits="userSpaceOnUse"><feOffset dy="3" input="SourceAlpha"/><feGaussianBlur stdDeviation="3" result="l"/><feFlood flood-opacity="0.259"/><feComposite operator="in" in2="l"/><feComposite in="SourceGraphic"/></filter><filter id="m" x="37" y="6.286" width="63" height="23.714" filterUnits="userSpaceOnUse"><feOffset dy="3" input="SourceAlpha"/><feGaussianBlur stdDeviation="3" result="n"/><feFlood flood-opacity="0.259"/><feComposite operator="in" in2="n"/><feComposite in="SourceGraphic"/></filter><filter id="o" x="37" y="124.857" width="63" height="27.143" filterUnits="userSpaceOnUse"><feOffset dy="3" input="SourceAlpha"/><feGaussianBlur stdDeviation="3" result="p"/><feFlood flood-opacity="0.259"/><feComposite operator="in" in2="p"/><feComposite in="SourceGraphic"/></filter><filter id="q" x="117" y="124.857" width="63" height="27.143" filterUnits="userSpaceOnUse"><feOffset dy="3" input="SourceAlpha"/><feGaussianBlur stdDeviation="3" result="r"/><feFlood flood-opacity="0.259"/><feComposite operator="in" in2="r"/><feComposite in="SourceGraphic"/></filter><filter id="s" x="197" y="124.857" width="63" height="27.143" filterUnits="userSpaceOnUse"><feOffset dy="3" input="SourceAlpha"/><feGaussianBlur stdDeviation="3" result="t"/><feFlood flood-opacity="0.259"/><feComposite operator="in" in2="t"/><feComposite in="SourceGraphic"/></filter><filter id="u" x="270.857" y="45" width="27.143" height="63" filterUnits="userSpaceOnUse"><feOffset dy="3" input="SourceAlpha"/><feGaussianBlur stdDeviation="3" result="v"/><feFlood flood-opacity="0.259"/><feComposite operator="in" in2="v"/><feComposite in="SourceGraphic"/></filter><filter id="w" x="0" y="45" width="27.143" height="63" filterUnits="userSpaceOnUse"><feOffset dy="3" input="SourceAlpha"/><feGaussianBlur stdDeviation="3" result="x"/><feFlood flood-opacity="0.259"/><feComposite operator="in" in2="x"/><feComposite in="SourceGraphic"/></filter></defs><g transform="translate(-5254 -5041)"><g transform="matrix(1, 0, 0, 1, 5254, 5041)" filter="url(#a)"><g transform="translate(24 21)" fill="#3f51b5" stroke="#3f51b5" stroke-linecap="round" stroke-width="1"><rect width="250" height="104.115" rx="15" stroke="none"/><rect x="0.5" y="0.5" width="249" height="103.115" rx="14.5" fill="none"/></g></g><g transform="matrix(1, 0, 0, 1, 5254, 5041)" filter="url(#c)"><g transform="translate(206 6)" fill="#3f51b5"><path d="M 22.20061492919922 9.454014778137207 C 22.05801582336426 9.326774597167969 22.00149536132813 9.125774383544922 22.0566463470459 8.941954612731934 C 22.12208557128906 8.723824501037598 22.30942535400391 8.620654106140137 22.41938591003418 8.604534149169922 C 22.1578254699707 8.642884254455566 19.6143856048584 8.642884254455566 18.77859497070313 8.642884254455566 C 15.68686294555664 8.642884254455566 10.04911804199219 8.620571136474609 0.5383400917053223 8.570644378662109 C 0.6791273951530457 7.659618854522705 1.207096219062805 6.763458728790283 2.11309552192688 5.900204181671143 C 3.200375556945801 4.864214420318604 4.769565582275391 3.928704261779785 6.777055263519287 3.119664430618286 C 10.96877574920654 1.430354356765747 16.55269622802734 0.5000043511390686 22.50017547607422 0.5000043511390686 C 28.44766616821289 0.5000043511390686 34.03157424926758 1.430354356765747 38.22330474853516 3.119664430618286 C 40.23079681396484 3.928704261779785 41.79998397827148 4.864214420318604 42.88726425170898 5.900204181671143 C 43.79300308227539 6.763209819793701 44.32093048095703 7.659101009368896 44.46189880371094 8.569854736328125 C 33.93840789794922 8.60980224609375 28.71011161804199 8.625424385070801 25.89202499389648 8.625424385070801 C 24.385986328125 8.625424385070801 22.8225154876709 8.62171459197998 22.64542579650879 8.594174385070801 C 22.65594482421875 8.59581470489502 22.66360473632813 8.598114013671875 22.66984558105469 8.599884033203125 L 22.20061492919922 9.454014778137207 Z" stroke="none"/><path d="M 22.50017547607422 1.000004768371582 C 16.61521530151367 1.000004768371582 11.09767532348633 1.917474269866943 6.963947296142578 3.583414554595947 C 3.814338684082031 4.85274076461792 1.780952453613281 6.447612762451172 1.18359375 8.074007034301758 C 10.30644607543945 8.121579170227051 15.75781059265137 8.142884254455566 18.77858543395996 8.142884254455566 C 20.94488525390625 8.142884254455566 22.14891624450684 8.131294250488281 22.35725593566895 8.108434677124023 C 22.12437629699707 8.133984565734863 21.72603607177734 8.334184646606445 21.58309555053711 8.780983924865723 C 21.46333503723145 9.155314445495605 21.5750560760498 9.565934181213379 21.86771583557129 9.82707405090332 L 22.32529258728027 9.314275741577148 L 22.76249122619629 8.107783317565918 C 22.73169898986816 8.100948333740234 22.71175575256348 8.098581314086914 22.70912933349609 8.09829044342041 C 22.93123435974121 8.122336387634277 24.52669525146484 8.125424385070801 25.89202499389648 8.125424385070801 C 28.65065574645996 8.125424385070801 33.72201538085938 8.110439300537109 43.81612014770508 8.072301864624023 C 43.21793365478516 6.446528434753418 41.18485641479492 4.852274417877197 38.03640747070313 3.583414554595947 C 33.90267562866211 1.917474269866943 28.38513565063477 1.000004768371582 22.50017547607422 1.000004768371582 M 22.50017547607422 4.76837158203125e-06 C 34.92668533325195 4.76837158203125e-06 45.00034713745117 4.059804439544678 45.00034713745117 9.067814826965332 C 34.41379165649414 9.108135223388672 28.84084510803223 9.125422477722168 25.89202499389648 9.125422477722168 C 22.99909019470215 9.125422477722168 22.63175201416016 9.108781814575195 22.53350067138672 9.080935478210449 C 22.52878761291504 9.076730728149414 22.51676940917969 9.072357177734375 22.50017547607422 9.067814826965332 C 22.51027870178223 9.07242488861084 22.5189151763916 9.076801300048828 22.53350067138672 9.080935478210449 C 22.57631683349609 9.119137763977051 22.01457023620605 9.142888069152832 18.77858924865723 9.142888069152832 C 15.64765739440918 9.142888069152832 10.01332855224609 9.12066650390625 -3.814697265625e-06 9.067814826965332 C -3.814697265625e-06 4.059804439544678 10.07367706298828 4.76837158203125e-06 22.50017547607422 4.76837158203125e-06 Z" stroke="none" fill="#3f51b5"/></g></g><g transform="matrix(1, 0, 0, 1, 5254, 5041)" filter="url(#e)"><g transform="translate(251 12.29) rotate(90)" fill="#3f51b5" stroke="#3f51b5" stroke-width="1"><rect width="5.714" height="45" rx="2.857" stroke="none"/><rect x="0.5" y="0.5" width="4.714" height="44" rx="2.357" fill="none"/></g></g><g transform="matrix(1, 0, 0, 1, 5254, 5041)" filter="url(#g)"><g transform="translate(126 6)" fill="#3f51b5"><path d="M 22.20061492919922 9.454014778137207 C 22.05801582336426 9.326774597167969 22.00149536132813 9.125774383544922 22.0566463470459 8.941954612731934 C 22.12208557128906 8.723824501037598 22.30942535400391 8.620654106140137 22.41938591003418 8.604534149169922 C 22.1578254699707 8.642884254455566 19.6143856048584 8.642884254455566 18.77859497070313 8.642884254455566 C 15.68686294555664 8.642884254455566 10.04911804199219 8.620571136474609 0.5383400917053223 8.570644378662109 C 0.6791273951530457 7.659618854522705 1.207096219062805 6.763458728790283 2.11309552192688 5.900204181671143 C 3.200375556945801 4.864214420318604 4.769565582275391 3.928704261779785 6.777055263519287 3.119664430618286 C 10.96877574920654 1.430354356765747 16.55269622802734 0.5000043511390686 22.50017547607422 0.5000043511390686 C 28.44766616821289 0.5000043511390686 34.03157424926758 1.430354356765747 38.22330474853516 3.119664430618286 C 40.23079681396484 3.928704261779785 41.79998397827148 4.864214420318604 42.88726425170898 5.900204181671143 C 43.79300308227539 6.763209819793701 44.32093048095703 7.659101009368896 44.46189880371094 8.569854736328125 C 33.93840789794922 8.60980224609375 28.71011161804199 8.625424385070801 25.89202499389648 8.625424385070801 C 24.385986328125 8.625424385070801 22.8225154876709 8.62171459197998 22.64542579650879 8.594174385070801 C 22.65594482421875 8.59581470489502 22.66360473632813 8.598114013671875 22.66984558105469 8.599884033203125 L 22.20061492919922 9.454014778137207 Z" stroke="none"/><path d="M 22.50017547607422 1.000004768371582 C 16.61521530151367 1.000004768371582 11.09767532348633 1.917474269866943 6.963947296142578 3.583414554595947 C 3.814338684082031 4.85274076461792 1.780952453613281 6.447612762451172 1.18359375 8.074007034301758 C 10.30644607543945 8.121579170227051 15.75781059265137 8.142884254455566 18.77858543395996 8.142884254455566 C 20.94488525390625 8.142884254455566 22.14891624450684 8.131294250488281 22.35725593566895 8.108434677124023 C 22.12437629699707 8.133984565734863 21.72603607177734 8.334184646606445 21.58309555053711 8.780983924865723 C 21.46333503723145 9.155314445495605 21.5750560760498 9.565934181213379 21.86771583557129 9.82707405090332 L 22.32529258728027 9.314275741577148 L 22.76249122619629 8.107783317565918 C 22.73169898986816 8.100948333740234 22.71175575256348 8.098581314086914 22.70912933349609 8.09829044342041 C 22.93123435974121 8.122336387634277 24.52669525146484 8.125424385070801 25.89202499389648 8.125424385070801 C 28.65065574645996 8.125424385070801 33.72201538085938 8.110439300537109 43.81612014770508 8.072301864624023 C 43.21793365478516 6.446528434753418 41.18485641479492 4.852274417877197 38.03640747070313 3.583414554595947 C 33.90267562866211 1.917474269866943 28.38513565063477 1.000004768371582 22.50017547607422 1.000004768371582 M 22.50017547607422 4.76837158203125e-06 C 34.92668533325195 4.76837158203125e-06 45.00034713745117 4.059804439544678 45.00034713745117 9.067814826965332 C 34.41379165649414 9.108135223388672 28.84084510803223 9.125422477722168 25.89202499389648 9.125422477722168 C 22.99909019470215 9.125422477722168 22.63175201416016 9.108781814575195 22.53350067138672 9.080935478210449 C 22.52878761291504 9.076730728149414 22.51676940917969 9.072357177734375 22.50017547607422 9.067814826965332 C 22.51027870178223 9.07242488861084 22.5189151763916 9.076801300048828 22.53350067138672 9.080935478210449 C 22.57631683349609 9.119137763977051 22.01457023620605 9.142888069152832 18.77858924865723 9.142888069152832 C 15.64765739440918 9.142888069152832 10.01332855224609 9.12066650390625 -3.814697265625e-06 9.067814826965332 C -3.814697265625e-06 4.059804439544678 10.07367706298828 4.76837158203125e-06 22.50017547607422 4.76837158203125e-06 Z" stroke="none" fill="#3f51b5"/></g></g><g transform="matrix(1, 0, 0, 1, 5254, 5041)" filter="url(#i)"><g transform="translate(171 12.29) rotate(90)" fill="#3f51b5" stroke="#3f51b5" stroke-width="1"><rect width="5.714" height="45" rx="2.857" stroke="none"/><rect x="0.5" y="0.5" width="4.714" height="44" rx="2.357" fill="none"/></g></g><g transform="matrix(1, 0, 0, 1, 5254, 5041)" filter="url(#k)"><g transform="translate(46 6)" fill="#3f51b5"><path d="M 22.20061492919922 9.454014778137207 C 22.05801582336426 9.326774597167969 22.00149536132813 9.125774383544922 22.0566463470459 8.941954612731934 C 22.12208557128906 8.723824501037598 22.30942535400391 8.620654106140137 22.41938591003418 8.604534149169922 C 22.1578254699707 8.642884254455566 19.6143856048584 8.642884254455566 18.77859497070313 8.642884254455566 C 15.68686294555664 8.642884254455566 10.04911804199219 8.620571136474609 0.5383400917053223 8.570644378662109 C 0.6791273951530457 7.659618854522705 1.207096219062805 6.763458728790283 2.11309552192688 5.900204181671143 C 3.200375556945801 4.864214420318604 4.769565582275391 3.928704261779785 6.777055263519287 3.119664430618286 C 10.96877574920654 1.430354356765747 16.55269622802734 0.5000043511390686 22.50017547607422 0.5000043511390686 C 28.44766616821289 0.5000043511390686 34.03157424926758 1.430354356765747 38.22330474853516 3.119664430618286 C 40.23079681396484 3.928704261779785 41.79998397827148 4.864214420318604 42.88726425170898 5.900204181671143 C 43.79300308227539 6.763209819793701 44.32093048095703 7.659101009368896 44.46189880371094 8.569854736328125 C 33.93840789794922 8.60980224609375 28.71011161804199 8.625424385070801 25.89202499389648 8.625424385070801 C 24.385986328125 8.625424385070801 22.8225154876709 8.62171459197998 22.64542579650879 8.594174385070801 C 22.65594482421875 8.59581470489502 22.66360473632813 8.598114013671875 22.66984558105469 8.599884033203125 L 22.20061492919922 9.454014778137207 Z" stroke="none"/><path d="M 22.50017547607422 1.000004768371582 C 16.61521530151367 1.000004768371582 11.09767532348633 1.917474269866943 6.963947296142578 3.583414554595947 C 3.814338684082031 4.85274076461792 1.780952453613281 6.447612762451172 1.18359375 8.074007034301758 C 10.30644607543945 8.121579170227051 15.75781059265137 8.142884254455566 18.77858543395996 8.142884254455566 C 20.94488525390625 8.142884254455566 22.14891624450684 8.131294250488281 22.35725593566895 8.108434677124023 C 22.12437629699707 8.133984565734863 21.72603607177734 8.334184646606445 21.58309555053711 8.780983924865723 C 21.46333503723145 9.155314445495605 21.5750560760498 9.565934181213379 21.86771583557129 9.82707405090332 L 22.32529258728027 9.314275741577148 L 22.76249122619629 8.107783317565918 C 22.73169898986816 8.100948333740234 22.71175575256348 8.098581314086914 22.70912933349609 8.09829044342041 C 22.93123435974121 8.122336387634277 24.52669525146484 8.125424385070801 25.89202499389648 8.125424385070801 C 28.65065574645996 8.125424385070801 33.72201538085938 8.110439300537109 43.81612014770508 8.072301864624023 C 43.21793365478516 6.446528434753418 41.18485641479492 4.852274417877197 38.03640747070313 3.583414554595947 C 33.90267562866211 1.917474269866943 28.38513565063477 1.000004768371582 22.50017547607422 1.000004768371582 M 22.50017547607422 4.76837158203125e-06 C 34.92668533325195 4.76837158203125e-06 45.00034713745117 4.059804439544678 45.00034713745117 9.067814826965332 C 34.41379165649414 9.108135223388672 28.84084510803223 9.125422477722168 25.89202499389648 9.125422477722168 C 22.99909019470215 9.125422477722168 22.63175201416016 9.108781814575195 22.53350067138672 9.080935478210449 C 22.52878761291504 9.076730728149414 22.51676940917969 9.072357177734375 22.50017547607422 9.067814826965332 C 22.51027870178223 9.07242488861084 22.5189151763916 9.076801300048828 22.53350067138672 9.080935478210449 C 22.57631683349609 9.119137763977051 22.01457023620605 9.142888069152832 18.77858924865723 9.142888069152832 C 15.64765739440918 9.142888069152832 10.01332855224609 9.12066650390625 -3.814697265625e-06 9.067814826965332 C -3.814697265625e-06 4.059804439544678 10.07367706298828 4.76837158203125e-06 22.50017547607422 4.76837158203125e-06 Z" stroke="none" fill="#3f51b5"/></g></g><g transform="matrix(1, 0, 0, 1, 5254, 5041)" filter="url(#m)"><g transform="translate(91 12.29) rotate(90)" fill="#3f51b5" stroke="#3f51b5" stroke-width="1"><rect width="5.714" height="45" rx="2.857" stroke="none"/><rect x="0.5" y="0.5" width="4.714" height="44" rx="2.357" fill="none"/></g></g><g transform="matrix(1, 0, 0, 1, 5254, 5041)" filter="url(#o)"><g transform="translate(91 140) rotate(180)" fill="#3f51b5"><path d="M 22.20061492919922 9.454014778137207 C 22.05801582336426 9.326774597167969 22.00149536132813 9.125774383544922 22.0566463470459 8.941954612731934 C 22.12208557128906 8.723824501037598 22.30942535400391 8.620654106140137 22.41938591003418 8.604534149169922 C 22.1578254699707 8.642884254455566 19.6143856048584 8.642884254455566 18.77859497070313 8.642884254455566 C 15.68686294555664 8.642884254455566 10.04911804199219 8.620571136474609 0.5383400917053223 8.570644378662109 C 0.6791273951530457 7.659618854522705 1.207096219062805 6.763458728790283 2.11309552192688 5.900204181671143 C 3.200375556945801 4.864214420318604 4.769565582275391 3.928704261779785 6.777055263519287 3.119664430618286 C 10.96877574920654 1.430354356765747 16.55269622802734 0.5000043511390686 22.50017547607422 0.5000043511390686 C 28.44766616821289 0.5000043511390686 34.03157424926758 1.430354356765747 38.22330474853516 3.119664430618286 C 40.23079681396484 3.928704261779785 41.79998397827148 4.864214420318604 42.88726425170898 5.900204181671143 C 43.79300308227539 6.763209819793701 44.32093048095703 7.659101009368896 44.46189880371094 8.569854736328125 C 33.93840789794922 8.60980224609375 28.71011161804199 8.625424385070801 25.89202499389648 8.625424385070801 C 24.385986328125 8.625424385070801 22.8225154876709 8.62171459197998 22.64542579650879 8.594174385070801 C 22.65594482421875 8.59581470489502 22.66360473632813 8.598114013671875 22.66984558105469 8.599884033203125 L 22.20061492919922 9.454014778137207 Z" stroke="none"/><path d="M 22.50017547607422 1.000004768371582 C 16.61521530151367 1.000004768371582 11.09767532348633 1.917474269866943 6.963947296142578 3.583414554595947 C 3.814338684082031 4.85274076461792 1.780952453613281 6.447612762451172 1.18359375 8.074007034301758 C 10.30644607543945 8.121579170227051 15.75781059265137 8.142884254455566 18.77858543395996 8.142884254455566 C 20.94488525390625 8.142884254455566 22.14891624450684 8.131294250488281 22.35725593566895 8.108434677124023 C 22.12437629699707 8.133984565734863 21.72603607177734 8.334184646606445 21.58309555053711 8.780983924865723 C 21.46333503723145 9.155314445495605 21.5750560760498 9.565934181213379 21.86771583557129 9.82707405090332 L 22.32529258728027 9.314275741577148 L 22.76249122619629 8.107783317565918 C 22.73169898986816 8.100948333740234 22.71175575256348 8.098581314086914 22.70912933349609 8.09829044342041 C 22.93123435974121 8.122336387634277 24.52669525146484 8.125424385070801 25.89202499389648 8.125424385070801 C 28.65065574645996 8.125424385070801 33.72201538085938 8.110439300537109 43.81612014770508 8.072301864624023 C 43.21793365478516 6.446528434753418 41.18485641479492 4.852274417877197 38.03640747070313 3.583414554595947 C 33.90267562866211 1.917474269866943 28.38513565063477 1.000004768371582 22.50017547607422 1.000004768371582 M 22.50017547607422 4.76837158203125e-06 C 34.92668533325195 4.76837158203125e-06 45.00034713745117 4.059804439544678 45.00034713745117 9.067814826965332 C 34.41379165649414 9.108135223388672 28.84084510803223 9.125422477722168 25.89202499389648 9.125422477722168 C 22.99909019470215 9.125422477722168 22.63175201416016 9.108781814575195 22.53350067138672 9.080935478210449 C 22.52878761291504 9.076730728149414 22.51676940917969 9.072357177734375 22.50017547607422 9.067814826965332 C 22.51027870178223 9.07242488861084 22.5189151763916 9.076801300048828 22.53350067138672 9.080935478210449 C 22.57631683349609 9.119137763977051 22.01457023620605 9.142888069152832 18.77858924865723 9.142888069152832 C 15.64765739440918 9.142888069152832 10.01332855224609 9.12066650390625 -3.814697265625e-06 9.067814826965332 C -3.814697265625e-06 4.059804439544678 10.07367706298828 4.76837158203125e-06 22.50017547607422 4.76837158203125e-06 Z" stroke="none" fill="#3f51b5"/></g></g><g transform="translate(5300 5174.714) rotate(-90)" fill="#3f51b5" stroke="#3f51b5" stroke-width="1"><rect width="5.714" height="45" rx="2.857" stroke="none"/><rect x="0.5" y="0.5" width="4.714" height="44" rx="2.357" fill="none"/></g><g transform="matrix(1, 0, 0, 1, 5254, 5041)" filter="url(#q)"><path d="M22.5,0C34.927,0,45,4.06,45,9.068c-22.514.086-22.353.067-22.5,0,.313.086-1,.113-22.5,0C0,4.06,10.074,0,22.5,0Z" transform="translate(171 140) rotate(180)" fill="#3f51b5"/></g><rect width="5.714" height="45" rx="2.857" transform="translate(5380 5174.714) rotate(-90)" fill="#3f51b5"/><g transform="matrix(1, 0, 0, 1, 5254, 5041)" filter="url(#s)"><g transform="translate(251 140) rotate(180)" fill="#3f51b5"><path d="M 22.20061492919922 9.454014778137207 C 22.05801582336426 9.326774597167969 22.00149536132813 9.125774383544922 22.0566463470459 8.941954612731934 C 22.12208557128906 8.723824501037598 22.30942535400391 8.620654106140137 22.41938591003418 8.604534149169922 C 22.1578254699707 8.642884254455566 19.6143856048584 8.642884254455566 18.77859497070313 8.642884254455566 C 15.68686294555664 8.642884254455566 10.04911804199219 8.620571136474609 0.5383400917053223 8.570644378662109 C 0.6791273951530457 7.659618854522705 1.207096219062805 6.763458728790283 2.11309552192688 5.900204181671143 C 3.200375556945801 4.864214420318604 4.769565582275391 3.928704261779785 6.777055263519287 3.119664430618286 C 10.96877574920654 1.430354356765747 16.55269622802734 0.5000043511390686 22.50017547607422 0.5000043511390686 C 28.44766616821289 0.5000043511390686 34.03157424926758 1.430354356765747 38.22330474853516 3.119664430618286 C 40.23079681396484 3.928704261779785 41.79998397827148 4.864214420318604 42.88726425170898 5.900204181671143 C 43.79300308227539 6.763209819793701 44.32093048095703 7.659101009368896 44.46189880371094 8.569854736328125 C 33.93840789794922 8.60980224609375 28.71011161804199 8.625424385070801 25.89202499389648 8.625424385070801 C 24.385986328125 8.625424385070801 22.8225154876709 8.62171459197998 22.64542579650879 8.594174385070801 C 22.65594482421875 8.59581470489502 22.66360473632813 8.598114013671875 22.66984558105469 8.599884033203125 L 22.20061492919922 9.454014778137207 Z" stroke="none"/><path d="M 22.50017547607422 1.000004768371582 C 16.61521530151367 1.000004768371582 11.09767532348633 1.917474269866943 6.963947296142578 3.583414554595947 C 3.814338684082031 4.85274076461792 1.780952453613281 6.447612762451172 1.18359375 8.074007034301758 C 10.30644607543945 8.121579170227051 15.75781059265137 8.142884254455566 18.77858543395996 8.142884254455566 C 20.94488525390625 8.142884254455566 22.14891624450684 8.131294250488281 22.35725593566895 8.108434677124023 C 22.12437629699707 8.133984565734863 21.72603607177734 8.334184646606445 21.58309555053711 8.780983924865723 C 21.46333503723145 9.155314445495605 21.5750560760498 9.565934181213379 21.86771583557129 9.82707405090332 L 22.32529258728027 9.314275741577148 L 22.76249122619629 8.107783317565918 C 22.73169898986816 8.100948333740234 22.71175575256348 8.098581314086914 22.70912933349609 8.09829044342041 C 22.93123435974121 8.122336387634277 24.52669525146484 8.125424385070801 25.89202499389648 8.125424385070801 C 28.65065574645996 8.125424385070801 33.72201538085938 8.110439300537109 43.81612014770508 8.072301864624023 C 43.21793365478516 6.446528434753418 41.18485641479492 4.852274417877197 38.03640747070313 3.583414554595947 C 33.90267562866211 1.917474269866943 28.38513565063477 1.000004768371582 22.50017547607422 1.000004768371582 M 22.50017547607422 4.76837158203125e-06 C 34.92668533325195 4.76837158203125e-06 45.00034713745117 4.059804439544678 45.00034713745117 9.067814826965332 C 34.41379165649414 9.108135223388672 28.84084510803223 9.125422477722168 25.89202499389648 9.125422477722168 C 22.99909019470215 9.125422477722168 22.63175201416016 9.108781814575195 22.53350067138672 9.080935478210449 C 22.52878761291504 9.076730728149414 22.51676940917969 9.072357177734375 22.50017547607422 9.067814826965332 C 22.51027870178223 9.07242488861084 22.5189151763916 9.076801300048828 22.53350067138672 9.080935478210449 C 22.57631683349609 9.119137763977051 22.01457023620605 9.142888069152832 18.77858924865723 9.142888069152832 C 15.64765739440918 9.142888069152832 10.01332855224609 9.12066650390625 -3.814697265625e-06 9.067814826965332 C -3.814697265625e-06 4.059804439544678 10.07367706298828 4.76837158203125e-06 22.50017547607422 4.76837158203125e-06 Z" stroke="none" fill="#3f51b5"/></g></g><g transform="translate(5460 5174.714) rotate(-90)" fill="#3f51b5" stroke="#3f51b5" stroke-width="1"><rect width="5.714" height="45" rx="2.857" stroke="none"/><rect x="0.5" y="0.5" width="4.714" height="44" rx="2.357" fill="none"/></g><g transform="matrix(1, 0, 0, 1, 5254, 5041)" filter="url(#u)"><g transform="translate(289 51) rotate(90)" fill="#3f51b5"><path d="M 22.20061492919922 9.454014778137207 C 22.05801582336426 9.326774597167969 22.00149536132813 9.125774383544922 22.0566463470459 8.941954612731934 C 22.12208557128906 8.723824501037598 22.30942535400391 8.620654106140137 22.41938591003418 8.604534149169922 C 22.1578254699707 8.642884254455566 19.6143856048584 8.642884254455566 18.77859497070313 8.642884254455566 C 15.68686294555664 8.642884254455566 10.04911804199219 8.620571136474609 0.5383400917053223 8.570644378662109 C 0.6791273951530457 7.659618854522705 1.207096219062805 6.763458728790283 2.11309552192688 5.900204181671143 C 3.200375556945801 4.864214420318604 4.769565582275391 3.928704261779785 6.777055263519287 3.119664430618286 C 10.96877574920654 1.430354356765747 16.55269622802734 0.5000043511390686 22.50017547607422 0.5000043511390686 C 28.44766616821289 0.5000043511390686 34.03157424926758 1.430354356765747 38.22330474853516 3.119664430618286 C 40.23079681396484 3.928704261779785 41.79998397827148 4.864214420318604 42.88726425170898 5.900204181671143 C 43.79300308227539 6.763209819793701 44.32093048095703 7.659101009368896 44.46189880371094 8.569854736328125 C 33.93840789794922 8.60980224609375 28.71011161804199 8.625424385070801 25.89202499389648 8.625424385070801 C 24.385986328125 8.625424385070801 22.8225154876709 8.62171459197998 22.64542579650879 8.594174385070801 C 22.65594482421875 8.59581470489502 22.66360473632813 8.598114013671875 22.66984558105469 8.599884033203125 L 22.20061492919922 9.454014778137207 Z" stroke="none"/><path d="M 22.50017547607422 1.000004768371582 C 16.61521530151367 1.000004768371582 11.09767532348633 1.917474269866943 6.963947296142578 3.583414554595947 C 3.814338684082031 4.85274076461792 1.780952453613281 6.447612762451172 1.18359375 8.074007034301758 C 10.30644607543945 8.121579170227051 15.75781059265137 8.142884254455566 18.77858543395996 8.142884254455566 C 20.94488525390625 8.142884254455566 22.14891624450684 8.131294250488281 22.35725593566895 8.108434677124023 C 22.12437629699707 8.133984565734863 21.72603607177734 8.334184646606445 21.58309555053711 8.780983924865723 C 21.46333503723145 9.155314445495605 21.5750560760498 9.565934181213379 21.86771583557129 9.82707405090332 L 22.32529258728027 9.314275741577148 L 22.76249122619629 8.107783317565918 C 22.73169898986816 8.100948333740234 22.71175575256348 8.098581314086914 22.70912933349609 8.09829044342041 C 22.93123435974121 8.122336387634277 24.52669525146484 8.125424385070801 25.89202499389648 8.125424385070801 C 28.65065574645996 8.125424385070801 33.72201538085938 8.110439300537109 43.81612014770508 8.072301864624023 C 43.21793365478516 6.446528434753418 41.18485641479492 4.852274417877197 38.03640747070313 3.583414554595947 C 33.90267562866211 1.917474269866943 28.38513565063477 1.000004768371582 22.50017547607422 1.000004768371582 M 22.50017547607422 4.76837158203125e-06 C 34.92668533325195 4.76837158203125e-06 45.00034713745117 4.059804439544678 45.00034713745117 9.067814826965332 C 34.41379165649414 9.108135223388672 28.84084510803223 9.125422477722168 25.89202499389648 9.125422477722168 C 22.99909019470215 9.125422477722168 22.63175201416016 9.108781814575195 22.53350067138672 9.080935478210449 C 22.52878761291504 9.076730728149414 22.51676940917969 9.072357177734375 22.50017547607422 9.067814826965332 C 22.51027870178223 9.07242488861084 22.5189151763916 9.076801300048828 22.53350067138672 9.080935478210449 C 22.57631683349609 9.119137763977051 22.01457023620605 9.142888069152832 18.77858924865723 9.142888069152832 C 15.64765739440918 9.142888069152832 10.01332855224609 9.12066650390625 -3.814697265625e-06 9.067814826965332 C -3.814697265625e-06 4.059804439544678 10.07367706298828 4.76837158203125e-06 22.50017547607422 4.76837158203125e-06 Z" stroke="none" fill="#3f51b5"/></g></g><g transform="translate(5536.715 5137) rotate(180)" fill="#3f51b5" stroke="#3f51b5" stroke-width="1"><rect width="5.714" height="45" rx="2.857" stroke="none"/><rect x="0.5" y="0.5" width="4.714" height="44" rx="2.357" fill="none"/></g><g transform="matrix(1, 0, 0, 1, 5254, 5041)" filter="url(#w)"><g transform="translate(9 96) rotate(-90)" fill="#3f51b5"><path d="M 22.20061492919922 9.454014778137207 C 22.05801582336426 9.326774597167969 22.00149536132813 9.125774383544922 22.0566463470459 8.941954612731934 C 22.12208557128906 8.723824501037598 22.30942535400391 8.620654106140137 22.41938591003418 8.604534149169922 C 22.1578254699707 8.642884254455566 19.6143856048584 8.642884254455566 18.77859497070313 8.642884254455566 C 15.68686294555664 8.642884254455566 10.04911804199219 8.620571136474609 0.5383400917053223 8.570644378662109 C 0.6791273951530457 7.659618854522705 1.207096219062805 6.763458728790283 2.11309552192688 5.900204181671143 C 3.200375556945801 4.864214420318604 4.769565582275391 3.928704261779785 6.777055263519287 3.119664430618286 C 10.96877574920654 1.430354356765747 16.55269622802734 0.5000043511390686 22.50017547607422 0.5000043511390686 C 28.44766616821289 0.5000043511390686 34.03157424926758 1.430354356765747 38.22330474853516 3.119664430618286 C 40.23079681396484 3.928704261779785 41.79998397827148 4.864214420318604 42.88726425170898 5.900204181671143 C 43.79300308227539 6.763209819793701 44.32093048095703 7.659101009368896 44.46189880371094 8.569854736328125 C 33.93840789794922 8.60980224609375 28.71011161804199 8.625424385070801 25.89202499389648 8.625424385070801 C 24.385986328125 8.625424385070801 22.8225154876709 8.62171459197998 22.64542579650879 8.594174385070801 C 22.65594482421875 8.59581470489502 22.66360473632813 8.598114013671875 22.66984558105469 8.599884033203125 L 22.20061492919922 9.454014778137207 Z" stroke="none"/><path d="M 22.50017547607422 1.000004768371582 C 16.61521530151367 1.000004768371582 11.09767532348633 1.917474269866943 6.963947296142578 3.583414554595947 C 3.814338684082031 4.85274076461792 1.780952453613281 6.447612762451172 1.18359375 8.074007034301758 C 10.30644607543945 8.121579170227051 15.75781059265137 8.142884254455566 18.77858543395996 8.142884254455566 C 20.94488525390625 8.142884254455566 22.14891624450684 8.131294250488281 22.35725593566895 8.108434677124023 C 22.12437629699707 8.133984565734863 21.72603607177734 8.334184646606445 21.58309555053711 8.780983924865723 C 21.46333503723145 9.155314445495605 21.5750560760498 9.565934181213379 21.86771583557129 9.82707405090332 L 22.32529258728027 9.314275741577148 L 22.76249122619629 8.107783317565918 C 22.73169898986816 8.100948333740234 22.71175575256348 8.098581314086914 22.70912933349609 8.09829044342041 C 22.93123435974121 8.122336387634277 24.52669525146484 8.125424385070801 25.89202499389648 8.125424385070801 C 28.65065574645996 8.125424385070801 33.72201538085938 8.110439300537109 43.81612014770508 8.072301864624023 C 43.21793365478516 6.446528434753418 41.18485641479492 4.852274417877197 38.03640747070313 3.583414554595947 C 33.90267562866211 1.917474269866943 28.38513565063477 1.000004768371582 22.50017547607422 1.000004768371582 M 22.50017547607422 4.76837158203125e-06 C 34.92668533325195 4.76837158203125e-06 45.00034713745117 4.059804439544678 45.00034713745117 9.067814826965332 C 34.41379165649414 9.108135223388672 28.84084510803223 9.125422477722168 25.89202499389648 9.125422477722168 C 22.99909019470215 9.125422477722168 22.63175201416016 9.108781814575195 22.53350067138672 9.080935478210449 C 22.52878761291504 9.076730728149414 22.51676940917969 9.072357177734375 22.50017547607422 9.067814826965332 C 22.51027870178223 9.07242488861084 22.5189151763916 9.076801300048828 22.53350067138672 9.080935478210449 C 22.57631683349609 9.119137763977051 22.01457023620605 9.142888069152832 18.77858924865723 9.142888069152832 C 15.64765739440918 9.142888069152832 10.01332855224609 9.12066650390625 -3.814697265625e-06 9.067814826965332 C -3.814697265625e-06 4.059804439544678 10.07367706298828 4.76837158203125e-06 22.50017547607422 4.76837158203125e-06 Z" stroke="none" fill="#3f51b5"/></g></g><g transform="translate(5269.286 5092)" fill="#3f51b5" stroke="#3f51b5" stroke-width="1"><rect width="5.714" height="45" rx="2.857" stroke="none"/><rect x="0.5" y="0.5" width="4.714" height="44" rx="2.357" fill="none"/></g></g></svg>