<svg xmlns="http://www.w3.org/2000/svg" xmlns:xlink="http://www.w3.org/1999/xlink" width="298" height="152.001" viewBox="0 0 298 152.001"><defs><filter id="a" x="15" y="15.001" width="268" height="122.115" filterUnits="userSpaceOnUse"><feOffset dy="3" input="SourceAlpha"/><feGaussianBlur stdDeviation="3" result="b"/><feFlood flood-opacity="0.161"/><feComposite operator="in" in2="b"/><feComposite in="SourceGraphic"/></filter><filter id="c" x="117" y="0" width="63" height="30.001" filterUnits="userSpaceOnUse"><feOffset dy="3" input="SourceAlpha"/><feGaussianBlur stdDeviation="3" result="d"/><feFlood flood-opacity="0.259"/><feComposite operator="in" in2="d"/><feComposite in="SourceGraphic"/></filter><filter id="e" x="197" y="0" width="63" height="30.001" filterUnits="userSpaceOnUse"><feOffset dy="3" input="SourceAlpha"/><feGaussianBlur stdDeviation="3" result="f"/><feFlood flood-opacity="0.259"/><feComposite operator="in" in2="f"/><feComposite in="SourceGraphic"/></filter><filter id="g" x="37" y="0" width="63" height="30.001" filterUnits="userSpaceOnUse"><feOffset dy="3" input="SourceAlpha"/><feGaussianBlur stdDeviation="3" result="h"/><feFlood flood-opacity="0.259"/><feComposite operator="in" in2="h"/><feComposite in="SourceGraphic"/></filter><filter id="i" x="37" y="124.858" width="63" height="27.143" filterUnits="userSpaceOnUse"><feOffset dy="3" input="SourceAlpha"/><feGaussianBlur stdDeviation="3" result="j"/><feFlood flood-opacity="0.259"/><feComposite operator="in" in2="j"/><feComposite in="SourceGraphic"/></filter><filter id="k" x="117" y="124.858" width="63" height="27.143" filterUnits="userSpaceOnUse"><feOffset dy="3" input="SourceAlpha"/><feGaussianBlur stdDeviation="3" result="l"/><feFlood flood-opacity="0.259"/><feComposite operator="in" in2="l"/><feComposite in="SourceGraphic"/></filter><filter id="m" x="197" y="124.858" width="63" height="27.143" filterUnits="userSpaceOnUse"><feOffset dy="3" input="SourceAlpha"/><feGaussianBlur stdDeviation="3" result="n"/><feFlood flood-opacity="0.259"/><feComposite operator="in" in2="n"/><feComposite in="SourceGraphic"/></filter><filter id="o" x="270.857" y="45.001" width="27.143" height="63" filterUnits="userSpaceOnUse"><feOffset dy="3" input="SourceAlpha"/><feGaussianBlur stdDeviation="3" result="p"/><feFlood flood-opacity="0.259"/><feComposite operator="in" in2="p"/><feComposite in="SourceGraphic"/></filter><filter id="q" x="0" y="45.001" width="27.143" height="63" filterUnits="userSpaceOnUse"><feOffset dy="3" input="SourceAlpha"/><feGaussianBlur stdDeviation="3" result="r"/><feFlood flood-opacity="0.259"/><feComposite operator="in" in2="r"/><feComposite in="SourceGraphic"/></filter></defs><g transform="translate(-5162 -5361.999)"><g transform="translate(109 508)"><g transform="matrix(1, 0, 0, 1, 5053, 4854)" filter="url(#a)"><g transform="translate(24 21)" fill="#fff" stroke="#f0f0f0" stroke-linecap="round" stroke-width="1"><rect width="250" height="104.115" rx="15" stroke="none"/><rect x="0.5" y="0.5" width="249" height="103.115" rx="14.5" fill="none"/></g></g></g><g transform="translate(10080.5 10276.5)"><g transform="matrix(1, 0, 0, 1, -4918.5, -4914.5)" filter="url(#c)"><g transform="translate(10206.5 10282.5)" fill="#fff"><path d="M -10038.3583984375 -10265 L -10077.64453125 -10265 C -10078.943359375 -10265 -10080 -10266.0576171875 -10080 -10267.3583984375 C -10080 -10267.3759765625 -10080 -10267.39453125 -10079.9990234375 -10267.412109375 L -10079.9873046875 -10267.72265625 C -10079.8984375 -10268.705078125 -10079.361328125 -10269.671875 -10078.38671875 -10270.6005859375 C -10077.2998046875 -10271.63671875 -10075.73046875 -10272.572265625 -10073.72265625 -10273.380859375 C -10069.53125 -10275.0703125 -10063.947265625 -10276.0009765625 -10058 -10276.0009765625 C -10052.052734375 -10276.0009765625 -10046.46875 -10275.0703125 -10042.27734375 -10273.380859375 C -10040.26953125 -10272.572265625 -10038.7001953125 -10271.63671875 -10037.61328125 -10270.6005859375 C -10036.5673828125 -10269.603515625 -10036.0244140625 -10268.5634765625 -10036.0009765625 -10267.505859375 L -10036.0009765625 -10267.4326171875 C -10036.0009765625 -10267.4169921875 -10036.0009765625 -10267.4013671875 -10036 -10267.3857421875 C -10036 -10267.376953125 -10036 -10267.3671875 -10036 -10267.3583984375 C -10036 -10266.0576171875 -10037.0576171875 -10265 -10038.3583984375 -10265 Z" stroke="none"/><path d="M -10038.3583984375 -10265.5 C -10037.333984375 -10265.5 -10036.5 -10266.333984375 -10036.5 -10267.3583984375 L -10036.5 -10267.3759765625 C -10036.5009765625 -10267.39453125 -10036.5009765625 -10267.4140625 -10036.5009765625 -10267.4326171875 L -10036.5009765625 -10267.501953125 C -10036.5517578125 -10269.4384765625 -10038.71875 -10271.408203125 -10042.4638671875 -10272.91796875 C -10046.59765625 -10274.583984375 -10052.115234375 -10275.5009765625 -10058 -10275.5009765625 C -10063.884765625 -10275.5009765625 -10069.40234375 -10274.583984375 -10073.5361328125 -10272.91796875 C -10077.1640625 -10271.455078125 -10079.3115234375 -10269.560546875 -10079.48828125 -10267.68359375 L -10079.5 -10267.392578125 C -10079.5 -10267.3818359375 -10079.5 -10267.3701171875 -10079.5 -10267.3583984375 C -10079.5 -10266.333984375 -10078.66796875 -10265.5 -10077.64453125 -10265.5 L -10038.3583984375 -10265.5 M -10038.3583984375 -10264.5 L -10077.64453125 -10264.5 C -10079.220703125 -10264.5 -10080.5 -10265.779296875 -10080.5 -10267.3583984375 C -10080.5 -10267.3828125 -10080.5 -10267.408203125 -10080.4990234375 -10267.4326171875 L -10080.5 -10267.4326171875 C -10080.5 -10272.44140625 -10070.42578125 -10276.5009765625 -10058 -10276.5009765625 C -10045.57421875 -10276.5009765625 -10035.5 -10272.44140625 -10035.5 -10267.4326171875 L -10035.5009765625 -10267.4326171875 C -10035.5009765625 -10267.408203125 -10035.5 -10267.3828125 -10035.5 -10267.3583984375 C -10035.5 -10265.779296875 -10036.779296875 -10264.5 -10038.3583984375 -10264.5 Z" stroke="none" fill="#f0f0f0"/></g></g></g><g transform="translate(10160.5 10276.5)"><g transform="matrix(1, 0, 0, 1, -4998.5, -4914.5)" filter="url(#e)"><g transform="translate(10286.5 10282.5)" fill="#fff"><path d="M -10038.3583984375 -10265 L -10077.64453125 -10265 C -10078.943359375 -10265 -10080 -10266.0576171875 -10080 -10267.3583984375 C -10080 -10267.3759765625 -10080 -10267.39453125 -10079.9990234375 -10267.412109375 L -10079.9873046875 -10267.72265625 C -10079.8984375 -10268.705078125 -10079.361328125 -10269.671875 -10078.38671875 -10270.6005859375 C -10077.2998046875 -10271.63671875 -10075.73046875 -10272.572265625 -10073.72265625 -10273.380859375 C -10069.53125 -10275.0703125 -10063.947265625 -10276.0009765625 -10058 -10276.0009765625 C -10052.052734375 -10276.0009765625 -10046.46875 -10275.0703125 -10042.27734375 -10273.380859375 C -10040.26953125 -10272.572265625 -10038.7001953125 -10271.63671875 -10037.61328125 -10270.6005859375 C -10036.5673828125 -10269.603515625 -10036.0244140625 -10268.5634765625 -10036.0009765625 -10267.505859375 L -10036.0009765625 -10267.4326171875 C -10036.0009765625 -10267.4169921875 -10036.0009765625 -10267.4013671875 -10036 -10267.3857421875 C -10036 -10267.376953125 -10036 -10267.3671875 -10036 -10267.3583984375 C -10036 -10266.0576171875 -10037.0576171875 -10265 -10038.3583984375 -10265 Z" stroke="none"/><path d="M -10038.3583984375 -10265.5 C -10037.333984375 -10265.5 -10036.5 -10266.333984375 -10036.5 -10267.3583984375 L -10036.5 -10267.3759765625 C -10036.5009765625 -10267.39453125 -10036.5009765625 -10267.4140625 -10036.5009765625 -10267.4326171875 L -10036.5009765625 -10267.501953125 C -10036.5517578125 -10269.4384765625 -10038.71875 -10271.408203125 -10042.4638671875 -10272.91796875 C -10046.59765625 -10274.583984375 -10052.115234375 -10275.5009765625 -10058 -10275.5009765625 C -10063.884765625 -10275.5009765625 -10069.40234375 -10274.583984375 -10073.5361328125 -10272.91796875 C -10077.1640625 -10271.455078125 -10079.3115234375 -10269.560546875 -10079.48828125 -10267.68359375 L -10079.5 -10267.392578125 C -10079.5 -10267.3818359375 -10079.5 -10267.3701171875 -10079.5 -10267.3583984375 C -10079.5 -10266.333984375 -10078.66796875 -10265.5 -10077.64453125 -10265.5 L -10038.3583984375 -10265.5 M -10038.3583984375 -10264.5 L -10077.64453125 -10264.5 C -10079.220703125 -10264.5 -10080.5 -10265.779296875 -10080.5 -10267.3583984375 C -10080.5 -10267.3828125 -10080.5 -10267.408203125 -10080.4990234375 -10267.4326171875 L -10080.5 -10267.4326171875 C -10080.5 -10272.44140625 -10070.42578125 -10276.5009765625 -10058 -10276.5009765625 C -10045.57421875 -10276.5009765625 -10035.5 -10272.44140625 -10035.5 -10267.4326171875 L -10035.5009765625 -10267.4326171875 C -10035.5009765625 -10267.408203125 -10035.5 -10267.3828125 -10035.5 -10267.3583984375 C -10035.5 -10265.779296875 -10036.779296875 -10264.5 -10038.3583984375 -10264.5 Z" stroke="none" fill="#f0f0f0"/></g></g></g><g transform="translate(10000.5 10276.5)"><g transform="matrix(1, 0, 0, 1, -4838.5, -4914.5)" filter="url(#g)"><g transform="translate(10046.5 10282.5)" fill="#fff"><path d="M -9958.3583984375 -10265 L -9997.642578125 -10265 C -9998.9423828125 -10265 -10000 -10266.0576171875 -10000 -10267.3583984375 C -10000 -10267.3759765625 -10000 -10267.39453125 -9999.9990234375 -10267.412109375 L -9999.9873046875 -10267.72265625 C -9999.8984375 -10268.705078125 -9999.361328125 -10269.671875 -9998.38671875 -10270.6005859375 C -9997.2998046875 -10271.63671875 -9995.73046875 -10272.572265625 -9993.72265625 -10273.380859375 C -9989.53125 -10275.0703125 -9983.947265625 -10276.0009765625 -9978 -10276.0009765625 C -9972.052734375 -10276.0009765625 -9966.46875 -10275.0703125 -9962.27734375 -10273.380859375 C -9960.26953125 -10272.572265625 -9958.7001953125 -10271.63671875 -9957.61328125 -10270.6005859375 C -9956.5673828125 -10269.603515625 -9956.0244140625 -10268.5634765625 -9956.0009765625 -10267.505859375 L -9956.0009765625 -10267.4326171875 C -9956.0009765625 -10267.4169921875 -9956.0009765625 -10267.4013671875 -9956 -10267.3857421875 C -9956 -10267.376953125 -9956 -10267.3671875 -9956 -10267.3583984375 C -9956 -10266.0576171875 -9957.0576171875 -10265 -9958.3583984375 -10265 Z" stroke="none"/><path d="M -9958.3583984375 -10265.5 C -9957.333984375 -10265.5 -9956.5 -10266.333984375 -9956.5 -10267.3583984375 L -9956.5 -10267.3759765625 C -9956.5009765625 -10267.39453125 -9956.5009765625 -10267.4140625 -9956.5009765625 -10267.4326171875 L -9956.5009765625 -10267.501953125 C -9956.5517578125 -10269.4384765625 -9958.71875 -10271.408203125 -9962.4638671875 -10272.91796875 C -9966.59765625 -10274.583984375 -9972.115234375 -10275.5009765625 -9978 -10275.5009765625 C -9983.884765625 -10275.5009765625 -9989.40234375 -10274.583984375 -9993.5361328125 -10272.91796875 C -9997.1640625 -10271.455078125 -9999.3115234375 -10269.560546875 -9999.48828125 -10267.68359375 L -9999.5 -10267.392578125 C -9999.5 -10267.3818359375 -9999.5 -10267.3701171875 -9999.5 -10267.3583984375 C -9999.5 -10266.333984375 -9998.6669921875 -10265.5 -9997.642578125 -10265.5 L -9958.3583984375 -10265.5 M -9958.3583984375 -10264.5 L -9997.642578125 -10264.5 C -9999.220703125 -10264.5 -10000.5 -10265.779296875 -10000.5 -10267.3583984375 C -10000.5 -10267.3828125 -10000.5 -10267.408203125 -10000.4990234375 -10267.4326171875 L -10000.5 -10267.4326171875 C -10000.5 -10272.44140625 -9990.42578125 -10276.5009765625 -9978 -10276.5009765625 C -9965.57421875 -10276.5009765625 -9955.5 -10272.44140625 -9955.5 -10267.4326171875 L -9955.5009765625 -10267.4326171875 C -9955.5009765625 -10267.408203125 -9955.5 -10267.3828125 -9955.5 -10267.3583984375 C -9955.5 -10265.779296875 -9956.779296875 -10264.5 -9958.3583984375 -10264.5 Z" stroke="none" fill="#f0f0f0"/></g></g></g><g transform="translate(460.5 593.5) rotate(180)"><g transform="matrix(-1, 0, 0, -1, -4701.5, -4768.5)" filter="url(#i)"><g transform="translate(91 140) rotate(180)" fill="#fff"><path d="M 22.20061492919922 9.454014778137207 C 22.05801582336426 9.326774597167969 22.00149536132813 9.125774383544922 22.0566463470459 8.941954612731934 C 22.12208557128906 8.723824501037598 22.30942535400391 8.620654106140137 22.41938591003418 8.604534149169922 C 22.1578254699707 8.642884254455566 19.6143856048584 8.642884254455566 18.77859497070313 8.642884254455566 C 15.68686294555664 8.642884254455566 10.04911804199219 8.620571136474609 0.5383400917053223 8.570644378662109 C 0.6791273951530457 7.659618854522705 1.207096219062805 6.763458728790283 2.11309552192688 5.900204181671143 C 3.200375556945801 4.864214420318604 4.769565582275391 3.928704261779785 6.777055263519287 3.119664430618286 C 10.96877574920654 1.430354356765747 16.55269622802734 0.5000043511390686 22.50017547607422 0.5000043511390686 C 28.44766616821289 0.5000043511390686 34.03157424926758 1.430354356765747 38.22330474853516 3.119664430618286 C 40.23079681396484 3.928704261779785 41.79998397827148 4.864214420318604 42.88726425170898 5.900204181671143 C 43.79300308227539 6.763209819793701 44.32093048095703 7.659101009368896 44.46189880371094 8.569854736328125 C 33.93840789794922 8.60980224609375 28.71011161804199 8.625424385070801 25.89202499389648 8.625424385070801 C 24.385986328125 8.625424385070801 22.8225154876709 8.62171459197998 22.64542579650879 8.594174385070801 C 22.65594482421875 8.59581470489502 22.66360473632813 8.598114013671875 22.66984558105469 8.599884033203125 L 22.20061492919922 9.454014778137207 Z" stroke="none"/><path d="M 22.50017547607422 1.000004768371582 C 16.61521530151367 1.000004768371582 11.09767532348633 1.917474269866943 6.963947296142578 3.583414554595947 C 3.814338684082031 4.85274076461792 1.780952453613281 6.447612762451172 1.18359375 8.074007034301758 C 10.30644607543945 8.121579170227051 15.75781059265137 8.142884254455566 18.77858543395996 8.142884254455566 C 20.94488525390625 8.142884254455566 22.14891624450684 8.131294250488281 22.35725593566895 8.108434677124023 C 22.12437629699707 8.133984565734863 21.72603607177734 8.334184646606445 21.58309555053711 8.780983924865723 C 21.46333503723145 9.155314445495605 21.5750560760498 9.565934181213379 21.86771583557129 9.82707405090332 L 22.32529258728027 9.314275741577148 L 22.76249122619629 8.107783317565918 C 22.73169898986816 8.100948333740234 22.71175575256348 8.098581314086914 22.70912933349609 8.09829044342041 C 22.93123435974121 8.122336387634277 24.52669525146484 8.125424385070801 25.89202499389648 8.125424385070801 C 28.65065574645996 8.125424385070801 33.72201538085938 8.110439300537109 43.81612014770508 8.072301864624023 C 43.21793365478516 6.446528434753418 41.18485641479492 4.852274417877197 38.03640747070313 3.583414554595947 C 33.90267562866211 1.917474269866943 28.38513565063477 1.000004768371582 22.50017547607422 1.000004768371582 M 22.50017547607422 4.76837158203125e-06 C 34.92668533325195 4.76837158203125e-06 45.00034713745117 4.059804439544678 45.00034713745117 9.067814826965332 C 34.41379165649414 9.108135223388672 28.84084510803223 9.125422477722168 25.89202499389648 9.125422477722168 C 22.99909019470215 9.125422477722168 22.63175201416016 9.108781814575195 22.53350067138672 9.080935478210449 C 22.52878761291504 9.076730728149414 22.51676940917969 9.072357177734375 22.50017547607422 9.067814826965332 C 22.51027870178223 9.07242488861084 22.5189151763916 9.076801300048828 22.53350067138672 9.080935478210449 C 22.57631683349609 9.119137763977051 22.01457023620605 9.142888069152832 18.77858924865723 9.142888069152832 C 15.64765739440918 9.142888069152832 10.01332855224609 9.12066650390625 -3.814697265625e-06 9.067814826965332 C -3.814697265625e-06 4.059804439544678 10.07367706298828 4.76837158203125e-06 22.50017547607422 4.76837158203125e-06 Z" stroke="none" fill="#f0f0f0"/></g></g><rect width="5.714" height="45" rx="2.857" transform="translate(-4747.5 -4902.214) rotate(90)" fill="#fff"/></g><g transform="translate(540.5 593.5) rotate(180)"><g transform="matrix(-1, 0, 0, -1, -4621.5, -4768.5)" filter="url(#k)"><g transform="translate(171 140) rotate(180)" fill="#fff"><path d="M 22.20061492919922 9.454014778137207 C 22.05801582336426 9.326774597167969 22.00149536132813 9.125774383544922 22.0566463470459 8.941954612731934 C 22.12208557128906 8.723824501037598 22.30942535400391 8.620654106140137 22.41938591003418 8.604534149169922 C 22.1578254699707 8.642884254455566 19.6143856048584 8.642884254455566 18.77859497070313 8.642884254455566 C 15.68686294555664 8.642884254455566 10.04911804199219 8.620571136474609 0.5383400917053223 8.570644378662109 C 0.6791273951530457 7.659618854522705 1.207096219062805 6.763458728790283 2.11309552192688 5.900204181671143 C 3.200375556945801 4.864214420318604 4.769565582275391 3.928704261779785 6.777055263519287 3.119664430618286 C 10.96877574920654 1.430354356765747 16.55269622802734 0.5000043511390686 22.50017547607422 0.5000043511390686 C 28.44766616821289 0.5000043511390686 34.03157424926758 1.430354356765747 38.22330474853516 3.119664430618286 C 40.23079681396484 3.928704261779785 41.79998397827148 4.864214420318604 42.88726425170898 5.900204181671143 C 43.79300308227539 6.763209819793701 44.32093048095703 7.659101009368896 44.46189880371094 8.569854736328125 C 33.93840789794922 8.60980224609375 28.71011161804199 8.625424385070801 25.89202499389648 8.625424385070801 C 24.385986328125 8.625424385070801 22.8225154876709 8.62171459197998 22.64542579650879 8.594174385070801 C 22.65594482421875 8.59581470489502 22.66360473632813 8.598114013671875 22.66984558105469 8.599884033203125 L 22.20061492919922 9.454014778137207 Z" stroke="none"/><path d="M 22.50017547607422 1.000004768371582 C 16.61521530151367 1.000004768371582 11.09767532348633 1.917474269866943 6.963947296142578 3.583414554595947 C 3.814338684082031 4.85274076461792 1.780952453613281 6.447612762451172 1.18359375 8.074007034301758 C 10.30644607543945 8.121579170227051 15.75781059265137 8.142884254455566 18.77858543395996 8.142884254455566 C 20.94488525390625 8.142884254455566 22.14891624450684 8.131294250488281 22.35725593566895 8.108434677124023 C 22.12437629699707 8.133984565734863 21.72603607177734 8.334184646606445 21.58309555053711 8.780983924865723 C 21.46333503723145 9.155314445495605 21.5750560760498 9.565934181213379 21.86771583557129 9.82707405090332 L 22.32529258728027 9.314275741577148 L 22.76249122619629 8.107783317565918 C 22.73169898986816 8.100948333740234 22.71175575256348 8.098581314086914 22.70912933349609 8.09829044342041 C 22.93123435974121 8.122336387634277 24.52669525146484 8.125424385070801 25.89202499389648 8.125424385070801 C 28.65065574645996 8.125424385070801 33.72201538085938 8.110439300537109 43.81612014770508 8.072301864624023 C 43.21793365478516 6.446528434753418 41.18485641479492 4.852274417877197 38.03640747070313 3.583414554595947 C 33.90267562866211 1.917474269866943 28.38513565063477 1.000004768371582 22.50017547607422 1.000004768371582 M 22.50017547607422 4.76837158203125e-06 C 34.92668533325195 4.76837158203125e-06 45.00034713745117 4.059804439544678 45.00034713745117 9.067814826965332 C 34.41379165649414 9.108135223388672 28.84084510803223 9.125422477722168 25.89202499389648 9.125422477722168 C 22.99909019470215 9.125422477722168 22.63175201416016 9.108781814575195 22.53350067138672 9.080935478210449 C 22.52878761291504 9.076730728149414 22.51676940917969 9.072357177734375 22.50017547607422 9.067814826965332 C 22.51027870178223 9.07242488861084 22.5189151763916 9.076801300048828 22.53350067138672 9.080935478210449 C 22.57631683349609 9.119137763977051 22.01457023620605 9.142888069152832 18.77858924865723 9.142888069152832 C 15.64765739440918 9.142888069152832 10.01332855224609 9.12066650390625 -3.814697265625e-06 9.067814826965332 C -3.814697265625e-06 4.059804439544678 10.07367706298828 4.76837158203125e-06 22.50017547607422 4.76837158203125e-06 Z" stroke="none" fill="#f0f0f0"/></g></g><rect width="5.714" height="45" rx="2.857" transform="translate(-4747.5 -4902.214) rotate(90)" fill="#fff"/></g><g transform="translate(620.5 593.5) rotate(180)"><g transform="matrix(-1, 0, 0, -1, -4541.5, -4768.5)" filter="url(#m)"><g transform="translate(251 140) rotate(180)" fill="#fff"><path d="M 22.20061492919922 9.454014778137207 C 22.05801582336426 9.326774597167969 22.00149536132813 9.125774383544922 22.0566463470459 8.941954612731934 C 22.12208557128906 8.723824501037598 22.30942535400391 8.620654106140137 22.41938591003418 8.604534149169922 C 22.1578254699707 8.642884254455566 19.6143856048584 8.642884254455566 18.77859497070313 8.642884254455566 C 15.68686294555664 8.642884254455566 10.04911804199219 8.620571136474609 0.5383400917053223 8.570644378662109 C 0.6791273951530457 7.659618854522705 1.207096219062805 6.763458728790283 2.11309552192688 5.900204181671143 C 3.200375556945801 4.864214420318604 4.769565582275391 3.928704261779785 6.777055263519287 3.119664430618286 C 10.96877574920654 1.430354356765747 16.55269622802734 0.5000043511390686 22.50017547607422 0.5000043511390686 C 28.44766616821289 0.5000043511390686 34.03157424926758 1.430354356765747 38.22330474853516 3.119664430618286 C 40.23079681396484 3.928704261779785 41.79998397827148 4.864214420318604 42.88726425170898 5.900204181671143 C 43.79300308227539 6.763209819793701 44.32093048095703 7.659101009368896 44.46189880371094 8.569854736328125 C 33.93840789794922 8.60980224609375 28.71011161804199 8.625424385070801 25.89202499389648 8.625424385070801 C 24.385986328125 8.625424385070801 22.8225154876709 8.62171459197998 22.64542579650879 8.594174385070801 C 22.65594482421875 8.59581470489502 22.66360473632813 8.598114013671875 22.66984558105469 8.599884033203125 L 22.20061492919922 9.454014778137207 Z" stroke="none"/><path d="M 22.50017547607422 1.000004768371582 C 16.61521530151367 1.000004768371582 11.09767532348633 1.917474269866943 6.963947296142578 3.583414554595947 C 3.814338684082031 4.85274076461792 1.780952453613281 6.447612762451172 1.18359375 8.074007034301758 C 10.30644607543945 8.121579170227051 15.75781059265137 8.142884254455566 18.77858543395996 8.142884254455566 C 20.94488525390625 8.142884254455566 22.14891624450684 8.131294250488281 22.35725593566895 8.108434677124023 C 22.12437629699707 8.133984565734863 21.72603607177734 8.334184646606445 21.58309555053711 8.780983924865723 C 21.46333503723145 9.155314445495605 21.5750560760498 9.565934181213379 21.86771583557129 9.82707405090332 L 22.32529258728027 9.314275741577148 L 22.76249122619629 8.107783317565918 C 22.73169898986816 8.100948333740234 22.71175575256348 8.098581314086914 22.70912933349609 8.09829044342041 C 22.93123435974121 8.122336387634277 24.52669525146484 8.125424385070801 25.89202499389648 8.125424385070801 C 28.65065574645996 8.125424385070801 33.72201538085938 8.110439300537109 43.81612014770508 8.072301864624023 C 43.21793365478516 6.446528434753418 41.18485641479492 4.852274417877197 38.03640747070313 3.583414554595947 C 33.90267562866211 1.917474269866943 28.38513565063477 1.000004768371582 22.50017547607422 1.000004768371582 M 22.50017547607422 4.76837158203125e-06 C 34.92668533325195 4.76837158203125e-06 45.00034713745117 4.059804439544678 45.00034713745117 9.067814826965332 C 34.41379165649414 9.108135223388672 28.84084510803223 9.125422477722168 25.89202499389648 9.125422477722168 C 22.99909019470215 9.125422477722168 22.63175201416016 9.108781814575195 22.53350067138672 9.080935478210449 C 22.52878761291504 9.076730728149414 22.51676940917969 9.072357177734375 22.50017547607422 9.067814826965332 C 22.51027870178223 9.07242488861084 22.5189151763916 9.076801300048828 22.53350067138672 9.080935478210449 C 22.57631683349609 9.119137763977051 22.01457023620605 9.142888069152832 18.77858924865723 9.142888069152832 C 15.64765739440918 9.142888069152832 10.01332855224609 9.12066650390625 -3.814697265625e-06 9.067814826965332 C -3.814697265625e-06 4.059804439544678 10.07367706298828 4.76837158203125e-06 22.50017547607422 4.76837158203125e-06 Z" stroke="none" fill="#f0f0f0"/></g></g><rect width="5.714" height="45" rx="2.857" transform="translate(-4747.5 -4902.214) rotate(90)" fill="#fff"/></g><g transform="translate(542.5 10205.5) rotate(90)"><g transform="matrix(0, -1, 1, 0, -4843.5, -4619.5)" filter="url(#o)"><g transform="translate(289 51) rotate(90)" fill="#fff"><path d="M 22.20061492919922 9.454014778137207 C 22.05801582336426 9.326774597167969 22.00149536132813 9.125774383544922 22.0566463470459 8.941954612731934 C 22.12208557128906 8.723824501037598 22.30942535400391 8.620654106140137 22.41938591003418 8.604534149169922 C 22.1578254699707 8.642884254455566 19.6143856048584 8.642884254455566 18.77859497070313 8.642884254455566 C 15.68686294555664 8.642884254455566 10.04911804199219 8.620571136474609 0.5383400917053223 8.570644378662109 C 0.6791273951530457 7.659618854522705 1.207096219062805 6.763458728790283 2.11309552192688 5.900204181671143 C 3.200375556945801 4.864214420318604 4.769565582275391 3.928704261779785 6.777055263519287 3.119664430618286 C 10.96877574920654 1.430354356765747 16.55269622802734 0.5000043511390686 22.50017547607422 0.5000043511390686 C 28.44766616821289 0.5000043511390686 34.03157424926758 1.430354356765747 38.22330474853516 3.119664430618286 C 40.23079681396484 3.928704261779785 41.79998397827148 4.864214420318604 42.88726425170898 5.900204181671143 C 43.79300308227539 6.763209819793701 44.32093048095703 7.659101009368896 44.46189880371094 8.569854736328125 C 33.93840789794922 8.60980224609375 28.71011161804199 8.625424385070801 25.89202499389648 8.625424385070801 C 24.385986328125 8.625424385070801 22.8225154876709 8.62171459197998 22.64542579650879 8.594174385070801 C 22.65594482421875 8.59581470489502 22.66360473632813 8.598114013671875 22.66984558105469 8.599884033203125 L 22.20061492919922 9.454014778137207 Z" stroke="none"/><path d="M 22.50017547607422 1.000004768371582 C 16.61521530151367 1.000004768371582 11.09767532348633 1.917474269866943 6.963947296142578 3.583414554595947 C 3.814338684082031 4.85274076461792 1.780952453613281 6.447612762451172 1.18359375 8.074007034301758 C 10.30644607543945 8.121579170227051 15.75781059265137 8.142884254455566 18.77858543395996 8.142884254455566 C 20.94488525390625 8.142884254455566 22.14891624450684 8.131294250488281 22.35725593566895 8.108434677124023 C 22.12437629699707 8.133984565734863 21.72603607177734 8.334184646606445 21.58309555053711 8.780983924865723 C 21.46333503723145 9.155314445495605 21.5750560760498 9.565934181213379 21.86771583557129 9.82707405090332 L 22.32529258728027 9.314275741577148 L 22.76249122619629 8.107783317565918 C 22.73169898986816 8.100948333740234 22.71175575256348 8.098581314086914 22.70912933349609 8.09829044342041 C 22.93123435974121 8.122336387634277 24.52669525146484 8.125424385070801 25.89202499389648 8.125424385070801 C 28.65065574645996 8.125424385070801 33.72201538085938 8.110439300537109 43.81612014770508 8.072301864624023 C 43.21793365478516 6.446528434753418 41.18485641479492 4.852274417877197 38.03640747070313 3.583414554595947 C 33.90267562866211 1.917474269866943 28.38513565063477 1.000004768371582 22.50017547607422 1.000004768371582 M 22.50017547607422 4.76837158203125e-06 C 34.92668533325195 4.76837158203125e-06 45.00034713745117 4.059804439544678 45.00034713745117 9.067814826965332 C 34.41379165649414 9.108135223388672 28.84084510803223 9.125422477722168 25.89202499389648 9.125422477722168 C 22.99909019470215 9.125422477722168 22.63175201416016 9.108781814575195 22.53350067138672 9.080935478210449 C 22.52878761291504 9.076730728149414 22.51676940917969 9.072357177734375 22.50017547607422 9.067814826965332 C 22.51027870178223 9.07242488861084 22.5189151763916 9.076801300048828 22.53350067138672 9.080935478210449 C 22.57631683349609 9.119137763977051 22.01457023620605 9.142888069152832 18.77858924865723 9.142888069152832 C 15.64765739440918 9.142888069152832 10.01332855224609 9.12066650390625 -3.814697265625e-06 9.067814826965332 C -3.814697265625e-06 4.059804439544678 10.07367706298828 4.76837158203125e-06 22.50017547607422 4.76837158203125e-06 Z" stroke="none" fill="#f0f0f0"/></g></g><rect width="5.714" height="45" rx="2.857" transform="translate(-4747.5 -4902.214) rotate(90)" fill="#fff"/></g><g transform="translate(10079.5 665.5) rotate(-90)"><g transform="matrix(0, 1, -1, 0, -4696.5, -4917.5)" filter="url(#q)"><g transform="translate(9 96) rotate(-90)" fill="#fff"><path d="M 22.20061492919922 9.454014778137207 C 22.05801582336426 9.326774597167969 22.00149536132813 9.125774383544922 22.0566463470459 8.941954612731934 C 22.12208557128906 8.723824501037598 22.30942535400391 8.620654106140137 22.41938591003418 8.604534149169922 C 22.1578254699707 8.642884254455566 19.6143856048584 8.642884254455566 18.77859497070313 8.642884254455566 C 15.68686294555664 8.642884254455566 10.04911804199219 8.620571136474609 0.5383400917053223 8.570644378662109 C 0.6791273951530457 7.659618854522705 1.207096219062805 6.763458728790283 2.11309552192688 5.900204181671143 C 3.200375556945801 4.864214420318604 4.769565582275391 3.928704261779785 6.777055263519287 3.119664430618286 C 10.96877574920654 1.430354356765747 16.55269622802734 0.5000043511390686 22.50017547607422 0.5000043511390686 C 28.44766616821289 0.5000043511390686 34.03157424926758 1.430354356765747 38.22330474853516 3.119664430618286 C 40.23079681396484 3.928704261779785 41.79998397827148 4.864214420318604 42.88726425170898 5.900204181671143 C 43.79300308227539 6.763209819793701 44.32093048095703 7.659101009368896 44.46189880371094 8.569854736328125 C 33.93840789794922 8.60980224609375 28.71011161804199 8.625424385070801 25.89202499389648 8.625424385070801 C 24.385986328125 8.625424385070801 22.8225154876709 8.62171459197998 22.64542579650879 8.594174385070801 C 22.65594482421875 8.59581470489502 22.66360473632813 8.598114013671875 22.66984558105469 8.599884033203125 L 22.20061492919922 9.454014778137207 Z" stroke="none"/><path d="M 22.50017547607422 1.000004768371582 C 16.61521530151367 1.000004768371582 11.09767532348633 1.917474269866943 6.963947296142578 3.583414554595947 C 3.814338684082031 4.85274076461792 1.780952453613281 6.447612762451172 1.18359375 8.074007034301758 C 10.30644607543945 8.121579170227051 15.75781059265137 8.142884254455566 18.77858543395996 8.142884254455566 C 20.94488525390625 8.142884254455566 22.14891624450684 8.131294250488281 22.35725593566895 8.108434677124023 C 22.12437629699707 8.133984565734863 21.72603607177734 8.334184646606445 21.58309555053711 8.780983924865723 C 21.46333503723145 9.155314445495605 21.5750560760498 9.565934181213379 21.86771583557129 9.82707405090332 L 22.32529258728027 9.314275741577148 L 22.76249122619629 8.107783317565918 C 22.73169898986816 8.100948333740234 22.71175575256348 8.098581314086914 22.70912933349609 8.09829044342041 C 22.93123435974121 8.122336387634277 24.52669525146484 8.125424385070801 25.89202499389648 8.125424385070801 C 28.65065574645996 8.125424385070801 33.72201538085938 8.110439300537109 43.81612014770508 8.072301864624023 C 43.21793365478516 6.446528434753418 41.18485641479492 4.852274417877197 38.03640747070313 3.583414554595947 C 33.90267562866211 1.917474269866943 28.38513565063477 1.000004768371582 22.50017547607422 1.000004768371582 M 22.50017547607422 4.76837158203125e-06 C 34.92668533325195 4.76837158203125e-06 45.00034713745117 4.059804439544678 45.00034713745117 9.067814826965332 C 34.41379165649414 9.108135223388672 28.84084510803223 9.125422477722168 25.89202499389648 9.125422477722168 C 22.99909019470215 9.125422477722168 22.63175201416016 9.108781814575195 22.53350067138672 9.080935478210449 C 22.52878761291504 9.076730728149414 22.51676940917969 9.072357177734375 22.50017547607422 9.067814826965332 C 22.51027870178223 9.07242488861084 22.5189151763916 9.076801300048828 22.53350067138672 9.080935478210449 C 22.57631683349609 9.119137763977051 22.01457023620605 9.142888069152832 18.77858924865723 9.142888069152832 C 15.64765739440918 9.142888069152832 10.01332855224609 9.12066650390625 -3.814697265625e-06 9.067814826965332 C -3.814697265625e-06 4.059804439544678 10.07367706298828 4.76837158203125e-06 22.50017547607422 4.76837158203125e-06 Z" stroke="none" fill="#f0f0f0"/></g></g><rect width="5.714" height="45" rx="2.857" transform="translate(-4747.5 -4902.214) rotate(90)" fill="#fff"/></g></g></svg>